<svg width="270" height="105" viewBox="0 0 270 105" fill="none" xmlns="http://www.w3.org/2000/svg">
<path fill="#000" d="M62.8615 104.067C59.5815 104.067 56.3515 102.987 53.6915 100.907L53.3015 100.607C48.2415 96.657 46.2715 89.937 48.4115 83.887L54.8615 65.637C56.7015 60.437 54.3116 56.197 51.4616 53.977C48.6116 51.747 43.9316 50.447 39.3216 53.487L23.1015 64.187C17.7615 67.707 10.7815 67.427 5.73154 63.497C1.84154 60.467 -0.288458 55.717 0.0315419 50.797C0.341542 45.887 3.06155 41.447 7.29155 38.937L68.1215 2.81698C75.2215 -1.40302 84.0215 -0.84302 90.5315 4.23698C97.0415 9.31698 99.7315 17.717 97.3615 25.627L95.1615 32.987C94.8015 34.177 93.5515 34.847 92.3615 34.497C91.1715 34.137 90.4915 32.887 90.8515 31.697L93.0515 24.337C94.8815 18.217 92.8015 11.717 87.7615 7.77699C82.7215 3.84699 75.9115 3.40698 70.4115 6.67698L9.57155 42.797C6.57155 44.577 4.72154 47.587 4.50154 51.067C4.28154 54.557 5.73154 57.787 8.48154 59.927C12.0015 62.677 16.8815 62.867 20.6115 60.417L36.8315 49.717C42.2715 46.137 49.0915 46.407 54.2215 50.417C59.3515 54.427 61.2615 60.987 59.0915 67.127L52.6415 85.377C51.1515 89.607 52.5215 94.297 56.0515 97.047L56.4415 97.347C59.2015 99.497 62.6915 100.117 66.0115 99.057C69.3315 97.997 71.8115 95.467 72.8115 92.127L75.1415 84.317C75.4915 83.127 76.7515 82.447 77.9415 82.807C79.1315 83.167 79.8115 84.417 79.4515 85.607L77.1215 93.417C75.7115 98.137 72.0715 101.847 67.3815 103.347C65.9115 103.837 64.3815 104.067 62.8615 104.067Z"/>
<path fill="#000" d="M102.262 65.917V66.047C102.262 73.097 97.2915 77.307 88.9615 77.307C85.1315 77.307 81.2515 76.317 77.7615 74.447C76.7215 73.887 75.9615 72.917 75.6715 71.787C75.3815 70.657 75.5715 69.507 76.2015 68.537C77.3515 66.757 79.6815 66.127 81.5015 67.107C84.2015 68.557 86.8715 69.327 89.2215 69.327C91.6615 69.327 93.0115 68.517 93.0115 67.057V66.927C93.0115 65.287 90.5615 64.557 87.4615 63.647C87.0315 63.517 86.6015 63.387 86.1515 63.257C77.0215 60.577 75.7915 56.447 75.7915 52.767V52.637C75.7915 46.017 80.9015 41.567 88.5115 41.567C91.5015 41.567 94.6515 42.237 97.6215 43.517C98.6815 43.967 99.5015 44.867 99.8815 45.957C100.262 47.057 100.152 48.277 99.5915 49.297C98.5415 51.207 96.2715 51.967 94.3015 51.097C92.0115 50.087 89.9415 49.547 88.3215 49.547C86.3015 49.547 85.0415 50.337 85.0415 51.627V51.757C85.0415 53.277 87.6715 54.167 90.7115 55.197L91.7715 55.557C96.8515 57.247 102.262 59.577 102.262 65.917Z"/>
<path fill="#000" d="M138.332 49.027L127.402 78.147C124.752 85.187 121.912 87.837 116.032 87.837C114.362 87.837 112.882 87.637 111.532 87.267C109.172 86.627 107.992 83.957 109.022 81.737C109.812 80.037 111.682 79.107 113.502 79.527C113.952 79.627 114.392 79.687 114.792 79.687H114.842C116.892 79.677 118.292 77.627 117.552 75.717L107.152 49.077C105.952 45.997 108.222 42.677 111.522 42.677H111.662C113.682 42.677 115.472 43.967 116.112 45.887L120.022 57.577C120.942 60.327 124.832 60.297 125.722 57.537L129.442 45.937C130.062 43.997 131.872 42.677 133.912 42.677C137.212 42.677 139.482 45.957 138.332 49.027Z"/>
<path fill="#000" d="M176.862 54.887V72.397C176.862 75.107 174.662 77.307 171.952 77.307C169.242 77.307 167.042 75.107 167.042 72.397V57.987C167.042 53.337 164.842 50.947 161.102 50.947C157.362 50.947 154.962 53.337 154.962 57.987V72.397C154.962 75.107 152.762 77.307 150.052 77.307C147.342 77.307 145.142 75.107 145.142 72.397V47.597C145.142 44.887 147.342 42.687 150.052 42.687C151.682 42.687 153.122 43.477 154.012 44.697C154.782 45.747 156.332 45.777 157.322 44.927C159.002 43.497 161.582 42.037 165.102 42.037C172.542 42.037 176.872 46.937 176.862 54.887Z"/>
<path fill="#000" d="M215.352 49.137L205.702 73.827C204.712 76.367 202.262 78.037 199.542 78.037C196.812 78.037 194.372 76.367 193.382 73.827L183.732 49.137C182.512 46.027 184.812 42.667 188.152 42.667H188.332C190.372 42.667 192.182 43.977 192.832 45.907L196.322 56.407C197.762 60.717 201.492 60.717 202.942 56.407L206.452 45.897C207.102 43.967 208.912 42.667 210.942 42.667C214.272 42.677 216.562 46.037 215.352 49.137Z"/>
<path fill="#000" d="M231.982 48.637V72.387C231.982 75.097 229.782 77.297 227.072 77.297C224.362 77.297 222.162 75.097 222.162 72.387V48.637C222.162 45.927 224.362 43.727 227.072 43.727C229.782 43.727 231.982 45.927 231.982 48.637ZM222.182 34.907C222.182 32.207 224.372 30.017 227.072 30.017C229.772 30.017 231.962 32.207 231.962 34.907C231.962 37.607 229.772 39.797 227.072 39.797C224.372 39.797 222.182 37.607 222.182 34.907Z"/>
<path fill="#000" d="M237.742 66.717V66.587C237.742 59.027 243.492 55.547 251.692 55.547C253.392 55.547 254.872 55.697 256.222 55.927C258.822 56.357 260.472 54.077 258.822 52.267C257.552 50.867 255.582 50.047 252.732 50.047C250.482 50.047 248.632 50.307 246.832 50.757C244.742 51.287 242.592 50.157 241.922 48.107C241.212 45.937 242.432 43.627 244.612 42.957C247.282 42.137 250.252 41.657 254.152 41.657C259.512 41.657 263.392 43.077 265.842 45.537C268.422 48.117 269.592 51.927 269.592 56.577V72.267C269.592 74.687 267.622 76.657 265.202 76.657H263.842C262.192 76.657 261.262 75.777 260.742 74.877C260.262 74.047 259.152 73.917 258.392 74.507C256.192 76.237 253.362 77.297 249.632 77.297C243.102 77.307 237.742 73.557 237.742 66.717ZM254.352 61.417C250.352 61.417 247.892 62.927 247.892 65.967C247.892 69.007 250.002 70.427 252.992 70.087C256.772 69.667 258.912 67.447 259.382 64.857C259.822 62.497 257.302 61.417 254.352 61.417Z"/>
</svg>
